<svg width="17" height="22" viewBox="0 0 17 22" fill="none" xmlns="http://www.w3.org/2000/svg">
<path d="M15.7273 9.10488C15.7273 15.0312 8.36364 20.1109 8.36364 20.1109C8.36364 20.1109 1 15.0312 1 9.10488C1 7.08406 1.77581 5.146 3.15676 3.71706C4.53771 2.28812 6.41068 1.48535 8.36364 1.48535C10.3166 1.48535 12.1896 2.28812 13.5705 3.71706C14.9515 5.146 15.7273 7.08406 15.7273 9.10488Z" stroke="#252A34" stroke-opacity="0.78" stroke-width="2" stroke-linecap="round" stroke-linejoin="round"/>
<path d="M8.36373 11.6447C9.71933 11.6447 10.8183 10.5076 10.8183 9.10488C10.8183 7.70216 9.71933 6.56503 8.36373 6.56503C7.00812 6.56503 5.90918 7.70216 5.90918 9.10488C5.90918 10.5076 7.00812 11.6447 8.36373 11.6447Z" stroke="#252A34" stroke-opacity="0.78" stroke-width="2" stroke-linecap="round" stroke-linejoin="round"/>
</svg>
