<svg width="304" height="276" viewBox="0 0 304 276" fill="none" xmlns="http://www.w3.org/2000/svg">
<path d="M92.2657 2.96045C55.4856 43.6466 43.8711 110.615 63.6697 113.315C83.4682 116.015 142.306 98.3802 134.438 134.101C126.571 169.822 108.873 178.059 129.043 221.961C149.212 265.862 196.808 255.408 196.808 255.408" stroke="#F4911F" stroke-width="2" stroke-dasharray="4 4"/>
<g clip-path="url(#clip0_4538_1447)">
<path d="M229.574 275.831C229.595 275.845 229.623 275.838 229.644 275.852C229.81 275.943 229.995 275.994 230.185 275.999C230.29 275.999 230.394 275.985 230.495 275.958L255.961 269.134L281.427 275.958C281.528 275.985 281.632 275.999 281.736 275.999C281.925 275.993 282.11 275.942 282.275 275.85C282.298 275.838 282.324 275.843 282.345 275.829L303.434 263.175C303.652 263.044 303.821 262.847 303.914 262.613C304.007 262.379 304.02 262.122 303.95 261.88L292.271 221.619C292.223 221.451 292.137 221.297 292.019 221.167C291.901 221.037 291.755 220.935 291.591 220.868C291.427 220.802 291.25 220.773 291.073 220.783C290.897 220.793 290.724 220.843 290.57 220.928L278.943 227.333C278.688 227.491 278.505 227.739 278.431 228.026C278.358 228.312 278.399 228.616 278.547 228.874C278.694 229.131 278.937 229.323 279.225 229.41C279.513 229.497 279.824 229.471 280.093 229.34L290.425 223.645L301.454 261.666L282.673 272.937L278.212 237.896C278.173 237.593 278.014 237.317 277.768 237.13C277.523 236.942 277.212 236.858 276.903 236.896C276.595 236.934 276.314 237.091 276.123 237.331C275.932 237.572 275.847 237.878 275.885 238.181L280.354 273.287L257.132 267.063V260.783C257.132 260.478 257.009 260.185 256.789 259.969C256.569 259.753 256.271 259.632 255.961 259.632C255.65 259.632 255.352 259.753 255.132 259.969C254.913 260.185 254.789 260.478 254.789 260.783V267.063L231.566 273.287L236.034 238.181C236.053 238.031 236.042 237.879 236.001 237.733C235.96 237.587 235.891 237.451 235.796 237.331C235.701 237.212 235.584 237.112 235.45 237.038C235.316 236.963 235.169 236.915 235.016 236.896C234.863 236.877 234.708 236.888 234.56 236.928C234.411 236.969 234.272 237.037 234.151 237.13C234.029 237.223 233.928 237.338 233.851 237.469C233.775 237.601 233.726 237.746 233.707 237.896L229.248 272.937L210.467 261.668L221.497 223.65L231.828 229.344C232.097 229.476 232.408 229.501 232.696 229.415C232.984 229.328 233.227 229.136 233.375 228.878C233.523 228.621 233.564 228.317 233.49 228.03C233.416 227.744 233.233 227.496 232.979 227.338L221.349 220.931C221.195 220.844 221.023 220.793 220.846 220.782C220.669 220.771 220.491 220.8 220.327 220.866C220.163 220.933 220.017 221.036 219.9 221.167C219.782 221.297 219.697 221.453 219.65 221.621L207.972 261.882C207.902 262.124 207.915 262.381 208.008 262.615C208.101 262.849 208.269 263.047 208.487 263.178L229.574 275.831Z" fill="#6F58A5"/>
<path d="M255.167 256.14C255.382 256.335 255.664 256.443 255.956 256.445C256.249 256.446 256.532 256.34 256.749 256.147C257.529 255.45 275.879 238.917 275.879 221.934C275.879 210.966 267.131 202.378 255.961 202.378C244.791 202.378 236.044 210.966 236.044 221.934C236.044 238.623 254.387 255.431 255.167 256.14ZM255.961 204.679C265.978 204.679 273.535 212.096 273.535 221.934C273.535 235.961 259.492 250.317 255.968 253.699C252.451 250.278 238.387 235.733 238.387 221.934C238.387 212.096 245.944 204.679 255.961 204.679Z" fill="#F4911F"/>
<path d="M266.505 221.934C266.505 216.226 261.774 211.581 255.961 211.581C250.147 211.581 245.417 216.226 245.417 221.934C245.417 227.641 250.147 232.286 255.961 232.286C261.774 232.286 266.505 227.641 266.505 221.934ZM255.961 229.986C251.439 229.986 247.76 226.374 247.76 221.934C247.76 217.493 251.439 213.881 255.961 213.881C260.483 213.881 264.162 217.493 264.162 221.934C264.162 226.374 260.483 229.986 255.961 229.986Z" fill="#F4911F"/>
</g>
<defs>
<clipPath id="clip0_4538_1447">
<rect width="96.0779" height="73.6211" fill="white" transform="translate(207.922 202.378)"/>
</clipPath>
</defs>
</svg>
